<?xml version="1.0" standalone="no"?>
<!DOCTYPE svg PUBLIC "-//W3C//DTD SVG 20010904//EN"
 "http://www.w3.org/TR/2001/REC-SVG-20010904/DTD/svg10.dtd">
<svg version="1.0" xmlns="http://www.w3.org/2000/svg"
 width="519.000000pt" height="515.000000pt" viewBox="0 0 519.000000 515.000000"
 preserveAspectRatio="xMidYMid meet">

<g transform="translate(0.000000,515.000000) scale(0.100000,-0.100000)"
fill="#000000" stroke="none">
<path d="M2390 5079 c-52 -4 -108 -9 -125 -13 -16 -3 -66 -10 -110 -16 -89
-13 -134 -24 -315 -80 -69 -22 -135 -42 -147 -45 -13 -4 -23 -11 -23 -16 0 -5
-7 -9 -17 -9 -44 0 -296 -132 -461 -243 -204 -137 -286 -204 -415 -339 -220
-233 -391 -487 -511 -758 -62 -142 -156 -458 -156 -526 0 -16 -5 -45 -10 -64
-17 -56 -41 -308 -38 -401 l3 -87 44 -6 c24 -3 162 -6 307 -6 164 0 265 -4
269 -10 3 -5 10 -10 15 -10 10 0 59 125 89 228 25 83 41 100 76 84 14 -7 25
-20 25 -29 0 -44 32 -401 39 -428 l7 -30 20 49 c10 27 30 72 44 100 24 48 27
51 67 54 52 4 61 -9 93 -128 35 -126 40 -132 114 -128 l61 3 60 120 c53 106
63 121 90 126 17 4 105 7 198 8 l167 1 0 -45 0 -45 -167 -2 -168 -3 -55 -112
c-30 -61 -61 -118 -69 -127 -11 -13 -36 -16 -127 -16 -133 0 -127 -5 -169 128
-15 46 -28 82 -30 80 -2 -2 -20 -45 -39 -95 -19 -50 -49 -125 -66 -167 -31
-75 -33 -77 -64 -74 -36 3 -34 -7 -61 283 -15 157 -19 185 -28 174 -2 -2 -20
-44 -39 -94 -20 -49 -43 -94 -52 -100 -26 -16 -49 7 -67 66 l-16 54 -283 3
-283 2 7 -87 c13 -171 73 -436 132 -583 151 -376 285 -592 539 -870 65 -72
280 -270 292 -270 5 0 29 -18 54 -40 24 -22 48 -40 53 -40 5 0 28 -15 50 -34
23 -19 76 -52 117 -73 41 -22 93 -52 114 -66 22 -15 43 -27 48 -27 5 0 34 -12
65 -26 82 -37 113 -50 150 -63 82 -28 100 -35 138 -52 23 -11 51 -19 62 -19
12 0 39 -7 59 -15 21 -8 67 -19 103 -25 36 -5 97 -16 135 -24 69 -15 157 -23
365 -33 122 -6 452 21 520 42 25 8 70 19 100 24 81 14 222 50 234 60 6 5 27
12 46 16 19 4 44 14 55 21 11 8 26 14 35 14 26 0 250 109 321 156 26 17 67 41
92 53 42 20 80 46 148 102 14 11 44 33 66 47 46 30 185 155 247 221 22 24 61
66 86 92 94 99 181 218 297 404 22 35 165 328 174 354 4 14 22 64 39 111 32
83 65 210 89 339 15 75 31 272 25 283 -3 5 -121 8 -263 8 l-259 0 -15 -32 c-8
-18 -27 -59 -41 -90 -38 -89 -63 -108 -135 -108 l-60 0 -3 -82 c-3 -80 -4 -83
-31 -92 -48 -17 -54 0 -72 204 -21 255 -21 256 -55 125 -16 -60 -37 -132 -47
-160 -17 -46 -21 -50 -54 -53 -45 -4 -53 6 -74 88 -9 36 -25 95 -36 133 l-20
67 -110 0 c-100 0 -110 -2 -105 -17 37 -133 41 -380 8 -505 -80 -296 -322
-473 -712 -520 l-105 -13 -1 -215 -1 -215 -157 0 -156 0 0 218 0 218 -112 -3
-113 -3 -3 -212 -2 -213 -160 0 -160 0 0 215 0 216 -287 -1 c-203 -1 -289 2
-291 10 -2 6 5 77 17 158 11 81 22 161 23 177 l3 30 120 5 c105 4 124 8 153
28 71 51 67 -4 66 893 l-1 807 -22 35 c-35 56 -70 67 -220 67 l-131 0 -1 155
c-1 85 -1 162 -1 170 0 8 0 20 1 26 1 7 90 9 286 7 l285 -3 0 208 0 207 160 0
160 0 2 -207 3 -208 110 0 110 0 3 208 2 207 160 0 160 0 0 -210 0 -210 34 0
c45 0 156 -24 229 -49 288 -100 437 -308 437 -610 0 -124 -18 -207 -61 -293
-34 -68 -119 -159 -188 -203 l-45 -28 76 -26 c97 -35 161 -77 240 -157 l63
-65 130 1 c72 1 140 1 152 1 20 -1 27 -13 50 -91 15 -49 30 -90 33 -90 3 0 10
24 16 52 6 29 30 144 54 256 41 186 46 203 67 208 36 10 50 -11 57 -84 20
-204 48 -430 56 -449 8 -19 17 -23 55 -23 l45 0 49 104 c27 57 54 107 61 111
7 4 138 9 291 9 153 1 280 4 283 7 8 8 9 244 2 349 -7 93 -12 123 -57 325 -24
109 -76 274 -90 290 -5 5 -9 15 -9 23 0 13 -11 39 -77 182 -39 84 -115 219
-150 266 -13 17 -23 36 -23 42 0 7 -4 12 -9 12 -5 0 -12 8 -15 18 -3 9 -16 28
-28 42 -21 23 -44 53 -120 155 -41 55 -242 253 -308 304 -36 27 -74 58 -85 69
-11 10 -35 27 -52 37 -18 11 -33 23 -33 27 0 5 -16 16 -35 25 -19 9 -35 20
-35 25 0 5 -10 13 -22 19 -13 5 -45 23 -73 39 -27 17 -60 35 -72 42 -13 6 -23
15 -23 19 0 5 -16 11 -35 15 -19 3 -37 10 -40 14 -7 11 -105 57 -152 71 -24 7
-43 16 -43 20 0 4 -19 12 -42 18 -41 9 -110 30 -170 51 -69 24 -86 29 -138 40
-30 6 -106 19 -169 30 -63 10 -121 22 -130 25 -23 9 -390 12 -501 4z"/>
<path d="M2395 3519 c-3 -8 -4 -165 -3 -349 l3 -335 137 1 c160 2 248 19 356
71 263 128 267 428 7 553 -88 42 -179 59 -346 67 -123 5 -149 4 -154 -8z"/>
<path d="M2390 2105 l0 -385 98 0 c290 1 509 61 599 164 58 67 76 119 77 216
1 102 -19 151 -90 222 -113 113 -310 167 -616 168 l-68 0 0 -385z"/>
</g>
</svg>
