<?xml version="1.0" encoding="UTF-8" standalone="no" ?>
<!DOCTYPE svg PUBLIC "-//W3C//DTD SVG 1.1//EN" "http://www.w3.org/Graphics/SVG/1.1/DTD/svg11.dtd">
<svg xmlns="http://www.w3.org/2000/svg" xmlns:xlink="http://www.w3.org/1999/xlink" version="1.1" width="1080" height="1080" viewBox="0 0 1080 1080" xml:space="preserve">
<desc>Created with Fabric.js 5.2.4</desc>
<defs>
</defs>
<rect x="0" y="0" width="100%" height="100%" fill="transparent"></rect>
<g transform="matrix(1 0 0 1 540 540)" id="1e964907-66f4-4720-a77b-b99a84e8662c"  >
<rect style="stroke: none; stroke-width: 1; stroke-dasharray: none; stroke-linecap: butt; stroke-dashoffset: 0; stroke-linejoin: miter; stroke-miterlimit: 4; fill: rgb(210,201,196); fill-rule: nonzero; opacity: 1;" vector-effect="non-scaling-stroke"  x="-540" y="-540" rx="0" ry="0" width="1080" height="1080" />
</g>
<g transform="matrix(Infinity NaN NaN Infinity 0 0)" id="32934e0d-0da3-4d9c-bcfe-007937db1a3f"  >
</g>
<g transform="matrix(NaN NaN NaN NaN 0 0)"  >
<g style=""   >
</g>
</g>
<g transform="matrix(1 0 0 1 540 540)"  >
<g style="" vector-effect="non-scaling-stroke"   >
		<g transform="matrix(0.13 0 0 -0.13 0 0)"  >
<path style="stroke: none; stroke-width: 1; stroke-dasharray: none; stroke-linecap: butt; stroke-dashoffset: 0; stroke-linejoin: miter; stroke-miterlimit: 4; fill: rgb(0,0,0); fill-rule: nonzero; opacity: 1;" vector-effect="non-scaling-stroke"  transform=" translate(-2596.21, -2562.89)" d="M 2390 5079 C 2338 5075 2282 5070 2265 5066 C 2249 5063 2199 5056 2155 5050 C 2066 5037 2021 5026 1840 4970 C 1771 4948 1705 4928 1693 4925 C 1680 4921 1670 4914 1670 4909 C 1670 4904 1663 4900 1653 4900 C 1609 4900 1357 4768 1192 4657 C 988 4520 906 4453 777 4318 C 557 4085 386 3831 266 3560 C 204 3418 110 3102 110 3034 C 110 3018 105 2989 100 2970 C 83 2914 59 2662 62 2569 L 65 2482 L 109 2476 C 133 2473 271 2470 416 2470 C 580 2470 681 2466 685 2460 C 688 2455 695 2450 700 2450 C 710 2450 759 2575 789 2678 C 814 2761 830 2778 865 2762 C 879 2755 890 2742 890 2733 C 890 2689 922 2332 929 2305 L 936 2275 L 956 2324 C 966 2351 986 2396 1000 2424 C 1024 2472 1027 2475 1067 2478 C 1119 2482 1128 2469 1160 2350 C 1195 2224 1200 2218 1274 2222 L 1335 2225 L 1395 2345 C 1448 2451 1458 2466 1485 2471 C 1502 2475 1590 2478 1683 2479 L 1850 2480 L 1850 2435 L 1850 2390 L 1683 2388 L 1515 2385 L 1460 2273 C 1430 2212 1399 2155 1391 2146 C 1380 2133 1355 2130 1264 2130 C 1131 2130 1137 2125 1095 2258 C 1080 2304 1067 2340 1065 2338 C 1063 2336 1045 2293 1026 2243 C 1007 2193 977 2118 960 2076 C 929 2001 927 1999 896 2002 C 860 2005 862 1995 835 2285 C 820 2442 816 2470 807 2459 C 805 2457 787 2415 768 2365 C 748 2316 725 2271 716 2265 C 690 2249 667 2272 649 2331 L 633 2385 L 350 2388 L 67 2390 L 74 2303 C 87 2132 147 1867 206 1720 C 357 1344 491 1128 745 850 C 810 778 1025 580 1037 580 C 1042 580 1066 562 1091 540 C 1115 518 1139 500 1144 500 C 1149 500 1172 485 1194 466 C 1217 447 1270 414 1311 393 C 1352 371 1404 341 1425 327 C 1447 312 1468 300 1473 300 C 1478 300 1507 288 1538 274 C 1620 237 1651 224 1688 211 C 1770 183 1788 176 1826 159 C 1849 148 1877 140 1888 140 C 1900 140 1927 133 1947 125 C 1968 117 2014 106 2050 100 C 2086 95 2147 84 2185 76 C 2254 61 2342 53 2550 43 C 2672 37 3002 64 3070 85 C 3095 93 3140 104 3170 109 C 3251 123 3392 159 3404 169 C 3410 174 3431 181 3450 185 C 3469 189 3494 199 3505 206 C 3516 214 3531 220 3540 220 C 3566 220 3790 329 3861 376 C 3887 393 3928 417 3953 429 C 3995 449 4033 475 4101 531 C 4115 542 4145 564 4167 578 C 4213 608 4352 733 4414 799 C 4436 823 4475 865 4500 891 C 4594 990 4681 1109 4797 1295 C 4819 1330 4962 1623 4971 1649 C 4975 1663 4993 1713 5010 1760 C 5042 1843 5075 1970 5099 2099 C 5114 2174 5130 2371 5124 2382 C 5121 2387 5003 2390 4861 2390 L 4602 2390 L 4587 2358 C 4579 2340 4560 2299 4546 2268 C 4508 2179 4483 2160 4411 2160 L 4351 2160 L 4348 2078 C 4345 1998 4344 1995 4317 1986 C 4269 1969 4263 1986 4245 2190 C 4224 2445 4224 2446 4190 2315 C 4174 2255 4153 2183 4143 2155 C 4126 2109 4122 2105 4089 2102 C 4044 2098 4036 2108 4015 2190 C 4006 2226 3990 2285 3979 2323 L 3959 2390 L 3849 2390 C 3749 2390 3739 2388 3744 2373 C 3781 2240 3785 1993 3752 1868 C 3672 1572 3430 1395 3040 1348 L 2935 1335 L 2934 1120 L 2933 905 L 2776 905 L 2620 905 L 2620 1123 L 2620 1341 L 2508 1338 L 2395 1335 L 2392 1123 L 2390 910 L 2230 910 L 2070 910 L 2070 1125 L 2070 1341 L 1783 1340 C 1580 1339 1494 1342 1492 1350 C 1490 1356 1497 1427 1509 1508 C 1520 1589 1531 1669 1532 1685 L 1535 1715 L 1655 1720 C 1760 1724 1779 1728 1808 1748 C 1879 1799 1875 1744 1874 2641 L 1873 3448 L 1851 3483 C 1816 3539 1781 3550 1631 3550 L 1500 3550 L 1499 3705 C 1498 3790 1498 3867 1498 3875 C 1498 3883 1498 3895 1499 3901 C 1500 3908 1589 3910 1785 3908 L 2070 3905 L 2070 4113 L 2070 4320 L 2230 4320 L 2390 4320 L 2392 4113 L 2395 3905 L 2505 3905 L 2615 3905 L 2618 4113 L 2620 4320 L 2780 4320 L 2940 4320 L 2940 4110 L 2940 3900 L 2974 3900 C 3019 3900 3130 3876 3203 3851 C 3491 3751 3640 3543 3640 3241 C 3640 3117 3622 3034 3579 2948 C 3545 2880 3460 2789 3391 2745 L 3346 2717 L 3422 2691 C 3519 2656 3583 2614 3662 2534 L 3725 2469 L 3855 2470 C 3927 2471 3995 2471 4007 2471 C 4027 2470 4034 2458 4057 2380 C 4072 2331 4087 2290 4090 2290 C 4093 2290 4100 2314 4106 2342 C 4112 2371 4136 2486 4160 2598 C 4201 2784 4206 2801 4227 2806 C 4263 2816 4277 2795 4284 2722 C 4304 2518 4332 2292 4340 2273 C 4348 2254 4357 2250 4395 2250 L 4440 2250 L 4489 2354 C 4516 2411 4543 2461 4550 2465 C 4557 2469 4688 2474 4841 2474 C 4994 2475 5121 2478 5124 2481 C 5132 2489 5133 2725 5126 2830 C 5119 2923 5114 2953 5069 3155 C 5045 3264 4993 3429 4979 3445 C 4974 3450 4970 3460 4970 3468 C 4970 3481 4959 3507 4893 3650 C 4854 3734 4778 3869 4743 3916 C 4730 3933 4720 3952 4720 3958 C 4720 3965 4716 3970 4711 3970 C 4706 3970 4699 3978 4696 3988 C 4693 3997 4680 4016 4668 4030 C 4647 4053 4624 4083 4548 4185 C 4507 4240 4306 4438 4240 4489 C 4204 4516 4166 4547 4155 4558 C 4144 4568 4120 4585 4103 4595 C 4085 4606 4070 4618 4070 4622 C 4070 4627 4054 4638 4035 4647 C 4016 4656 4000 4667 4000 4672 C 4000 4677 3990 4685 3978 4691 C 3965 4696 3933 4714 3905 4730 C 3878 4747 3845 4765 3833 4772 C 3820 4778 3810 4787 3810 4791 C 3810 4796 3794 4802 3775 4806 C 3756 4809 3738 4816 3735 4820 C 3728 4831 3630 4877 3583 4891 C 3559 4898 3540 4907 3540 4911 C 3540 4915 3521 4923 3498 4929 C 3457 4938 3388 4959 3328 4980 C 3259 5004 3242 5009 3190 5020 C 3160 5026 3084 5039 3021 5050 C 2958 5060 2900 5072 2891 5075 C 2868 5084 2501 5087 2390 5079 z" stroke-linecap="round" />
</g>
		<g transform="matrix(0.13 0 0 -0.13 19.12 -82.6)"  >
<path style="stroke: none; stroke-width: 1; stroke-dasharray: none; stroke-linecap: butt; stroke-dashoffset: 0; stroke-linejoin: miter; stroke-miterlimit: 4; fill: rgb(0,0,0); fill-rule: nonzero; opacity: 1;" vector-effect="non-scaling-stroke"  transform=" translate(-2739.64, -3182.42)" d="M 2395 3519 C 2392 3511 2391 3354 2392 3170 L 2395 2835 L 2532 2836 C 2692 2838 2780 2855 2888 2907 C 3151 3035 3155 3335 2895 3460 C 2807 3502 2716 3519 2549 3527 C 2426 3532 2400 3531 2395 3519 z" stroke-linecap="round" />
</g>
		<g transform="matrix(0.13 0 0 -0.13 24.11 61.05)"  >
<path style="stroke: none; stroke-width: 1; stroke-dasharray: none; stroke-linecap: butt; stroke-dashoffset: 0; stroke-linejoin: miter; stroke-miterlimit: 4; fill: rgb(0,0,0); fill-rule: nonzero; opacity: 1;" vector-effect="non-scaling-stroke"  transform=" translate(-2777.02, -2105)" d="M 2390 2105 L 2390 1720 L 2488 1720 C 2778 1721 2997 1781 3087 1884 C 3145 1951 3163 2003 3164 2100 C 3165 2202 3145 2251 3074 2322 C 2961 2435 2764 2489 2458 2490 L 2390 2490 L 2390 2105 z" stroke-linecap="round" />
</g>
</g>
</g>
</svg>